PathFileType	4	(X/Y/Z)	C:\Users\xlb\Desktop\20210112\20210112\bx_n_10_502.trc
DataRate	CameraRate	NumFrames	NumMarkers	Units	OrigDataRate	OrigDataStartFrame	OrigNumFrames
50.00	50.00	       6	43	mm	50.00	178	       473
Frame#	Time	Top.Head			R.Acromium			L.Acromium			Sternum			R.ASIS			L.ASIS			V.Sacral			R.Thigh.Upper			R.Thigh.Front			R.Thigh.Rear			R.Knee.Lat			R.Knee.Med			R.Shank.Upper			R.Shank.Front			R.Shank.Rear			R.Ankle.Lat			R.Midfoot.Lat			R.Toe.Lat			R.Toe.Tip			R.Toe.Med			R.Ankle.Med			R.Midfoot.Sup			R.Heel			L.Thigh.Upper			L.Thigh.Front			L.Thigh.Rear			L.Knee.Lat			L.Knee.Med			L.Shank.Upper			L.Shank.Front			L.Shank.Rear			L.Ankle.Lat			L.Midfoot.Lat			L.Toe.Lat			L.Toe.Tip			L.Toe.Med			L.Ankle.Med			L.Midfoot.Sup			L.Heel			origin1 front left			origin2 front right			origin 3 back right			origin 4 back leftt			
		X1	Y1	Z1	X2	Y2	Z2	X3	Y3	Z3	X4	Y4	Z4	X5	Y5	Z5	X6	Y6	Z6	X7	Y7	Z7	X8	Y8	Z8	X9	Y9	Z9	X10	Y10	Z10	X11	Y11	Z11	X12	Y12	Z12	X13	Y13	Z13	X14	Y14	Z14	X15	Y15	Z15	X16	Y16	Z16	X17	Y17	Z17	X18	Y18	Z18	X19	Y19	Z19	X20	Y20	Z20	X21	Y21	Z21	X22	Y22	Z22	X23	Y23	Z23	X24	Y24	Z24	X25	Y25	Z25	X26	Y26	Z26	X27	Y27	Z27	X28	Y28	Z28	X29	Y29	Z29	X30	Y30	Z30	X31	Y31	Z31	X32	Y32	Z32	X33	Y33	Z33	X34	Y34	Z34	X35	Y35	Z35	X36	Y36	Z36	X37	Y37	Z37	X38	Y38	Z38	X39	Y39	Z39	X40	Y40	Z40	X41	Y41	Z41	X42	Y42	Z42	X43	Y43	Z43	

178	3.540	-343.86230	126.80902	1621.93311	-486.02289	-56.09752	1353.66614	-498.65479	288.04178	1350.36108	-564.15912	104.24730	1166.48157	-761.35492	-5.35819	1015.23914	-771.89819	239.82071	1035.80444	-955.46149	89.36176	1079.08887	-831.26404	-72.19763	865.07196	-742.47382	-8.78079	807.33533	-826.87665	-65.37209	747.82721	-809.51965	-37.30028	608.01843	-788.19489	71.10095	566.54767	-806.31171	-35.18236	561.11700	-746.24170	15.46611	524.88342	-828.58093	-50.05373	474.22842	-762.38770	-23.30769	202.86929	-648.66418	-69.20843	160.45370	-607.08539	-76.92752	156.20004	-550.01044	-28.56038	162.96051	-598.51080	25.27109	168.11839	-725.47168	65.29084	219.43054	-673.10339	51.19786	162.52367	-793.93701	35.48401	171.81256	-863.74658	282.99387	865.44897	-750.74390	214.92441	816.11383	-843.29126	276.99963	731.41693	-847.22430	254.15959	627.37775	-794.01477	148.57309	571.92548	-833.00482	250.77625	563.95288	-769.40686	210.25661	536.39081	-853.92773	262.40112	483.96890	-774.51678	231.18744	201.12695	-660.77930	299.63358	155.68993	-624.37610	306.59479	157.93938	-558.41144	255.62524	164.18579	-595.49347	222.25772	175.02480	-720.61890	159.69209	222.66718	-676.36127	176.79103	163.75168	-799.03607	181.01860	180.73927	-527.97693	303.91827	146.27757	-517.96973	-72.77173	142.73970	-875.92578	-78.86096	141.17223	-882.71857	295.87045	144.43930	
179	3.560	-356.39908	126.14909	1635.88342	-492.97107	-56.15150	1363.54370	-504.82693	288.98276	1360.43103	-565.28314	104.82271	1175.10522	-758.77002	-4.34041	1017.32043	-769.55103	240.89528	1037.79968	-953.75500	90.30862	1078.42566	-828.43939	-71.15894	865.68561	-739.54285	-8.17166	807.67004	-824.49902	-64.46243	748.43408	-807.59937	-36.69213	608.40479	-785.95142	71.58907	566.80408	-804.49988	-34.62049	561.49341	-744.56049	15.79861	524.90387	-827.17609	-49.55487	474.66858	-762.42670	-23.11309	203.02094	-648.65619	-69.18702	160.45726	-607.11005	-76.93966	156.21457	-550.06006	-28.77147	162.98373	-598.39911	25.17028	168.29550	-725.11334	65.54120	219.52983	-673.07898	51.30606	162.55884	-793.87286	35.66545	171.82428	-860.79266	283.59680	865.96515	-747.64612	215.94917	816.69055	-840.96265	277.26370	731.95996	-845.36676	254.72797	627.86450	-792.53607	149.45938	572.24255	-831.52344	251.29657	564.43024	-768.00885	210.91663	536.60425	-852.73071	262.78015	484.37769	-774.51587	231.40439	201.09773	-660.84473	299.63971	155.70369	-624.43250	306.70117	157.92738	-558.51764	255.58144	164.20961	-595.56146	222.42639	175.16765	-720.51398	159.83907	222.62720	-676.42633	176.73007	163.85269	-799.09210	181.05934	180.77528	-527.97137	303.92810	146.28842	-517.95776	-72.81684	142.77022	-875.89783	-78.89559	141.21088	-882.69104	295.90277	144.44756	
180	3.580	-368.92700	125.43906	1649.53015	-499.86938	-56.23097	1373.41626	-511.19012	289.93045	1370.53638	-566.40796	105.43600	1183.87427	-756.02051	-3.32590	1019.40027	-767.05157	241.99547	1039.77966	-951.86261	91.33454	1077.77295	-825.42944	-70.20000	866.36249	-736.64673	-7.49756	807.99945	-822.16052	-63.49290	749.02130	-805.69366	-36.03348	608.76196	-783.68298	72.36680	567.22296	-802.71106	-33.96634	561.79797	-742.82104	16.07771	524.95972	-825.79889	-48.96835	475.05371	-762.44476	-22.87584	203.17529	-648.65155	-69.11400	160.48820	-607.13428	-76.92654	156.22316	-550.09796	-28.99559	163.01651	-598.30383	25.10068	168.37581	-724.68652	65.83989	219.65335	-673.06573	51.42772	162.58739	-793.81531	35.87014	171.88057	-857.69440	284.26297	866.51611	-744.44269	217.10893	817.22742	-838.45288	277.72626	732.57867	-843.37183	255.43701	628.32635	-790.85773	150.25101	572.52435	-829.96991	251.90494	564.85242	-766.54028	211.56561	536.78613	-851.43689	263.27084	484.76132	-774.49231	231.59058	201.08710	-660.94299	299.64020	155.69131	-624.47748	306.83319	157.90518	-558.58118	255.53635	164.31250	-595.56348	222.52422	175.26617	-720.47314	159.98383	222.64394	-676.55414	176.61504	164.04945	-799.15167	181.12793	180.82037	-527.97589	303.94958	146.30551	-517.95709	-72.92317	142.82101	-875.85132	-78.87411	141.22012	-882.66565	295.94165	144.49745	
181	3.600	-381.45627	124.70409	1662.78467	-506.73264	-56.34718	1383.13306	-517.72437	290.93665	1380.68530	-567.58185	106.18523	1192.67896	-753.11603	-2.25011	1021.42834	-764.41553	243.10262	1041.68982	-949.80353	92.38885	1077.16553	-822.10248	-69.40160	867.14496	-733.80750	-6.74242	808.30133	-819.74542	-62.52581	749.56903	-803.73529	-35.30057	609.11279	-781.53638	73.34358	567.71179	-800.93866	-33.27837	562.11121	-741.03381	16.44222	525.00500	-824.42279	-48.32957	475.44128	-762.41113	-22.62274	203.32492	-648.66461	-69.02843	160.52187	-607.15259	-76.91856	156.22711	-550.12183	-29.20986	163.04651	-598.23523	25.05134	168.39896	-724.33252	66.09838	219.69748	-673.04132	51.54824	162.58092	-793.77380	36.05963	171.95982	-854.49866	285.01294	867.06714	-741.24274	218.32529	817.66376	-835.83319	278.42841	733.28363	-841.22528	256.32077	628.82037	-789.00854	150.94606	572.78113	-828.26941	252.63113	565.21899	-764.99170	212.15504	536.89258	-850.03198	263.90433	485.14569	-774.43481	231.76636	201.10117	-661.05127	299.67126	155.62888	-624.53314	307.00815	157.86217	-558.60968	255.52681	164.50697	-595.51685	222.56036	175.34720	-720.41052	160.12340	222.71709	-676.69537	176.49600	164.26868	-799.17786	181.23994	180.85187	-527.97339	303.96802	146.31665	-517.95178	-73.05923	142.89960	-875.81360	-78.78574	141.19366	-882.63690	295.97800	144.57433	
182	3.620	-394.05927	123.94353	1675.59253	-513.68884	-56.43125	1392.49817	-524.39532	291.99548	1390.83411	-568.83569	107.09542	1201.38354	-750.09912	-1.10581	1023.41473	-761.67432	244.23451	1043.52258	-947.62744	93.42323	1076.62073	-818.54749	-68.64143	867.94000	-730.95105	-5.88207	808.57440	-817.13062	-61.57945	750.10040	-801.67529	-34.48052	609.48206	-779.48486	74.35242	568.11664	-799.14594	-32.57158	562.50568	-739.21448	16.97242	524.98438	-823.03204	-47.63243	475.88623	-762.32324	-22.37479	203.49738	-648.70862	-68.97707	160.55635	-607.16949	-76.92471	156.24008	-550.14252	-29.40853	163.05110	-598.17932	24.99397	168.41002	-724.09296	66.31425	219.59766	-672.95996	51.67307	162.51508	-793.73627	36.24884	172.03973	-851.22693	285.82175	867.56635	-738.09021	219.51550	818.03021	-833.12769	279.25333	734.02820	-838.98340	257.30890	629.38019	-787.03455	151.56215	573.02545	-826.41382	253.46561	565.57031	-763.36975	212.71326	536.94983	-848.53815	264.64743	485.58054	-774.35083	231.94211	201.12083	-661.14728	299.73547	155.53502	-624.59650	307.21964	157.79817	-558.63690	255.56703	164.74925	-595.44751	222.56647	175.43584	-720.27338	160.24568	222.81425	-676.80774	176.40239	164.45451	-799.16669	181.39076	180.85841	-527.95129	303.97382	146.29820	-517.93500	-73.15380	142.97890	-875.80157	-78.67890	141.15759	-882.61047	296.00430	144.64761	
183	3.640	-406.78796	123.14311	1687.94336	-520.85583	-56.47095	1401.44519	-531.13867	293.04794	1400.89026	-570.17542	108.14227	1209.90173	-747.00507	0.07817	1025.39014	-758.87524	245.43153	1045.31982	-945.37244	94.44498	1076.12512	-814.94464	-67.72085	868.64844	-727.94763	-4.92232	808.84412	-814.26691	-60.57532	750.66864	-799.50098	-33.58041	609.88007	-777.35486	75.25285	568.33386	-797.25519	-31.80148	562.96509	-737.32898	17.62348	524.91656	-821.58405	-46.85332	476.41046	-762.19543	-22.14001	203.73940	-648.78009	-68.97305	160.59976	-607.19952	-76.92972	156.27495	-550.16028	-29.59316	163.01469	-598.11456	24.91887	168.41872	-723.85638	66.56023	219.40128	-672.81201	51.81319	162.38293	-793.67566	36.47763	172.12608	-847.88208	286.68964	868.01831	-734.93036	220.67935	818.36731	-830.36115	280.01740	734.73370	-836.72876	258.25388	629.98297	-784.98517	152.11862	573.26831	-824.45538	254.34409	565.94879	-761.67255	213.30786	537.03314	-847.00610	265.39975	486.09271	-774.25250	232.08083	201.12982	-661.22253	299.79718	155.45114	-624.64282	307.43536	157.71530	-558.69568	255.63876	164.93590	-595.37653	222.57111	175.53761	-720.08630	160.33136	222.89293	-676.87115	176.33963	164.57858	-799.14551	181.52902	180.85678	-527.91858	303.96851	146.24805	-517.91345	-73.17171	143.02049	-875.80823	-78.61130	141.13127	-882.59631	296.02060	144.69540	
